<svg width="325" height="324" viewBox="0 0 325 324" fill="none" xmlns="http://www.w3.org/2000/svg">
<g filter="url(#filter0_d_226_11792)">
<rect x="24" y="13" width="277" height="277" rx="52.8626" fill="black"/>
</g>
<g clip-path="url(#clip0_226_11792)">
<path d="M162.828 239.818C111.385 239.253 82.6301 209.16 81.857 155.04C81.5299 130.389 80.6378 64.8508 131.695 63.3342H132.051C145.165 63.3342 155.721 67.0512 163.601 74.396C170.292 68.1217 178.886 64.7913 188.49 64.7913C188.877 64.7913 190.007 64.821 190.007 64.821C201.069 65.4158 210.406 69.9951 216.977 78.0536C225.66 88.6991 228.931 104.043 226.88 124.828C238.09 136.396 247.665 155.873 240.974 187.542L240.885 187.928L240.766 188.285C231.548 221.679 205.44 239.015 163.155 239.788H162.977H162.798L162.828 239.818Z" fill="white"/>
<path d="M210.434 131.548C215.46 99.1359 208.174 83.2866 191.106 80.5509C173.383 79.9562 163.898 92.2075 163.868 119.208C163.898 91.4641 151.765 79.4507 131.069 78.4991C107.815 81.2051 96.1886 104.191 97.7943 150.431C97.2888 188.879 111.889 211.865 139.573 221.351C170.142 226.049 202.644 226.555 221.972 193.905C232.409 167.112 228.633 146.297 210.405 131.578L210.434 131.548Z" fill="#725BFF"/>
<path d="M135.619 137.406C152.42 121.646 173.294 115.372 197.499 123.817C223.608 134.641 231.815 155.486 225.719 184.359C218.047 212.163 195.596 223.611 162.916 224.206C119.829 223.73 98.1216 200.476 97.4972 154.832C96.8132 103.834 106.894 79.6886 132.199 78.9452C157.296 78.9452 163.541 96.8165 162.53 121.735" stroke="black" stroke-width="5.9472" stroke-linecap="round" stroke-linejoin="round"/>
<path d="M164.581 120.99C163.421 95.3871 172.491 79.9541 189.232 80.4002C208.025 81.4112 215.043 99.907 210.493 130.327" stroke="black" stroke-width="5.9472" stroke-linecap="round" stroke-linejoin="round"/>
<path d="M173.575 169.105C176.384 169.105 178.66 166.829 178.66 164.021C178.66 161.212 176.384 158.936 173.575 158.936C170.767 158.936 168.491 161.212 168.491 164.021C168.491 166.829 170.767 169.105 173.575 169.105Z" fill="black"/>
<path d="M201.126 169.105C203.934 169.105 206.211 166.829 206.211 164.021C206.211 161.212 203.934 158.936 201.126 158.936C198.318 158.936 196.041 161.212 196.041 164.021C196.041 166.829 198.318 169.105 201.126 169.105Z" fill="black"/>
</g>
<defs>
<filter id="filter0_d_226_11792" x="0.740459" y="0.312978" width="323.519" height="323.519" filterUnits="userSpaceOnUse" color-interpolation-filters="sRGB">
<feFlood flood-opacity="0" result="BackgroundImageFix"/>
<feColorMatrix in="SourceAlpha" type="matrix" values="0 0 0 0 0 0 0 0 0 0 0 0 0 0 0 0 0 0 127 0" result="hardAlpha"/>
<feMorphology radius="9.16285" operator="dilate" in="SourceAlpha" result="effect1_dropShadow_226_11792"/>
<feOffset dy="10.5725"/>
<feGaussianBlur stdDeviation="7.04835"/>
<feComposite in2="hardAlpha" operator="out"/>
<feColorMatrix type="matrix" values="0 0 0 0 0 0 0 0 0 0 0 0 0 0 0 0 0 0 0.1 0"/>
<feBlend mode="normal" in2="BackgroundImageFix" result="effect1_dropShadow_226_11792"/>
<feBlend mode="normal" in="SourceGraphic" in2="effect1_dropShadow_226_11792" result="shape"/>
</filter>
<clipPath id="clip0_226_11792">
<rect width="161.407" height="176.483" fill="white" transform="translate(81.7964 63.3351)"/>
</clipPath>
</defs>
</svg>
